<?xml version="1.0" standalone="no"?><!DOCTYPE svg PUBLIC "-//W3C//DTD SVG 1.1//EN" "http://www.w3.org/Graphics/SVG/1.1/DTD/svg11.dtd"><svg t="1674287080847" class="icon" viewBox="0 0 1024 1024" version="1.1" xmlns="http://www.w3.org/2000/svg" p-id="3052" xmlns:xlink="http://www.w3.org/1999/xlink" width="200" height="200"><path d="M495.725179 1021.36818l-460.734921-153.578307A51.192769 51.192769 0 0 1 0 819.156742V51.265207A51.192769 51.192769 0 0 1 67.39528 2.632076L511.92769 150.886335 956.4601 2.632076A51.192769 51.192769 0 0 1 1023.85538 51.265207v767.891535a51.192769 51.192769 0 0 1-34.990257 48.633131l-460.734921 153.578307a51.192769 51.192769 0 0 1-32.405023 0zM102.385538 782.272352l409.542152 136.505519 409.542152-136.505519V122.269577L528.130202 253.476644a51.192769 51.192769 0 0 1-32.405023 0L102.385538 122.269577v660.002775zM511.92769 819.156742a51.192769 51.192769 0 0 1-51.192769-51.192769V409.61459a51.192769 51.192769 0 0 1 102.385538 0v358.349383a51.192769 51.192769 0 0 1-51.192769 51.192769z" fill="#36d7b7" p-id="3053"></path></svg>